<?xml version="1.0" encoding="UTF-8" ?>
<!DOCTYPE svg PUBLIC "-//W3C//DTD SVG 1.1//EN" "http://www.w3.org/Graphics/SVG/1.1/DTD/svg11.dtd">
<svg id="facebook-icon" width="256pt" height="256pt" viewBox="0 0 256 256" version="1.1"
     xmlns="http://www.w3.org/2000/svg">
    <g id="#0d111fff">
        <path opacity="1.00"
              d=" M 126.37 35.47 C 141.18 30.53 157.11 31.28 172.48 32.19 C 173.00 42.42 172.59 52.68 172.71 62.93 C 166.10 62.94 159.21 61.66 152.85 64.02 C 148.47 65.73 146.99 70.71 146.92 75.01 C 147.37 78.26 147.09 81.53 146.71 84.78 C 155.66 85.07 164.61 84.85 173.57 84.91 C 173.95 93.85 173.65 102.80 173.75 111.74 C 164.99 111.70 156.23 111.81 147.47 111.67 C 146.47 115.44 147.26 119.32 147.16 123.14 C 147.23 136.77 147.27 150.40 147.18 164.02 C 146.61 168.66 147.08 173.31 147.12 177.97 C 146.61 194.40 147.80 210.87 146.57 227.30 C 134.70 227.24 122.83 227.25 110.96 227.30 C 109.11 227.35 107.32 226.91 105.54 226.48 C 105.64 188.51 105.52 150.54 105.60 112.57 C 98.03 112.11 90.44 112.18 82.87 112.53 C 89.68 111.58 96.59 111.62 103.42 112.24 C 104.96 113.24 105.67 111.73 105.61 110.62 C 104.08 112.75 101.14 111.45 98.97 111.56 C 93.52 110.62 88.07 112.24 82.60 111.61 C 82.56 102.71 82.56 93.82 82.60 84.92 C 90.05 84.91 97.51 84.92 104.96 84.91 C 104.97 75.32 104.73 65.54 107.26 56.19 C 109.71 46.72 116.95 38.44 126.37 35.47 Z"/>
    </g>
</svg>
