<?xml version="1.0" encoding="UTF-8" ?>
<!DOCTYPE svg PUBLIC "-//W3C//DTD SVG 1.1//EN" "http://www.w3.org/Graphics/SVG/1.1/DTD/svg11.dtd">
<svg id="cart" width="256pt" height="256pt" viewBox="0 0 256 256" version="1.1" xmlns="http://www.w3.org/2000/svg">
    <g id="#231f20ff">
        <path opacity="1.00"
              d=" M 104.86 31.97 C 106.44 24.66 115.47 21.01 122.02 23.99 C 125.06 25.52 126.97 28.50 128.00 31.66 C 129.27 27.24 133.05 22.96 137.97 23.08 C 144.03 22.27 150.33 26.61 151.31 32.72 C 152.28 35.86 150.62 38.91 149.49 41.74 C 163.54 63.19 177.14 84.92 191.15 106.39 C 205.45 106.36 219.75 106.37 234.05 106.38 C 241.36 106.23 248.22 112.52 248.25 119.93 C 248.75 125.47 245.56 130.98 240.61 133.46 C 237.17 135.58 233.00 134.75 229.19 134.85 C 229.93 137.82 230.15 140.91 229.69 143.94 C 225.84 166.11 222.31 188.34 218.41 210.50 C 216.30 221.06 208.42 231.77 197.04 232.85 C 151.68 232.92 106.32 232.85 60.97 232.89 C 55.78 232.93 50.82 230.44 47.11 226.93 C 41.77 221.99 38.85 214.94 37.72 207.87 C 34.28 187.29 30.85 166.71 27.34 146.14 C 26.62 142.41 26.69 138.59 27.32 134.86 C 22.89 134.81 17.97 135.65 14.18 132.75 C 6.94 128.44 5.48 117.32 11.25 111.23 C 14.09 107.81 18.60 106.20 22.97 106.35 C 36.93 106.41 50.89 106.34 64.85 106.39 C 78.84 84.93 92.44 63.20 106.50 41.78 C 105.23 38.71 103.58 35.32 104.86 31.97 M 116.24 46.88 C 103.40 66.66 90.70 86.53 78.00 106.40 C 111.33 106.35 144.67 106.35 178.00 106.40 C 165.30 86.53 152.59 66.66 139.76 46.88 C 134.51 46.94 129.86 43.68 127.98 38.81 C 126.12 43.69 121.49 46.94 116.24 46.88 M 69.30 147.19 C 66.12 148.87 64.20 152.38 64.27 155.95 C 64.24 170.28 64.22 184.62 64.28 198.95 C 64.02 204.67 70.13 210.00 75.70 207.58 C 79.23 206.38 81.51 202.66 81.34 198.99 C 81.43 185.32 81.32 171.66 81.39 157.99 C 81.47 154.89 81.36 151.41 78.91 149.15 C 76.64 146.29 72.51 146.26 69.30 147.19 M 104.21 147.20 C 100.47 148.85 98.76 153.18 98.87 157.06 C 98.89 170.70 98.87 184.34 98.88 197.98 C 98.71 202.39 101.55 206.97 106.00 208.00 C 111.35 209.22 116.42 204.21 116.23 198.95 C 116.28 184.63 116.24 170.31 116.25 155.98 C 116.36 153.25 115.25 150.52 113.25 148.66 C 111.00 146.18 107.14 146.38 104.21 147.20 M 139.26 147.09 C 135.70 148.46 133.71 152.35 133.78 156.04 C 133.69 169.37 133.80 182.71 133.73 196.04 C 133.78 198.42 133.63 200.95 134.80 203.12 C 136.49 206.71 140.83 209.16 144.74 207.79 C 148.91 206.59 151.32 202.12 151.14 197.97 C 151.07 183.64 151.21 169.30 151.07 154.97 C 150.86 149.16 144.77 144.93 139.26 147.09 M 173.37 147.38 C 170.68 148.87 168.65 151.84 168.76 154.98 C 168.75 169.97 168.72 184.98 168.78 199.97 C 168.80 205.50 175.30 209.99 180.41 207.43 C 184.51 205.86 186.06 201.18 186.00 197.12 C 186.01 184.08 185.98 171.02 186.01 157.98 C 186.02 154.58 185.34 150.79 182.62 148.49 C 180.22 146.14 176.30 146.29 173.37 147.38 Z"/>
    </g>
</svg>
