<?xml version="1.0" encoding="UTF-8" ?>
<!DOCTYPE svg PUBLIC "-//W3C//DTD SVG 1.1//EN" "http://www.w3.org/Graphics/SVG/1.1/DTD/svg11.dtd">
<svg width="50pt" height="50pt" viewBox="0 0 50 50" version="1.1" xmlns="http://www.w3.org/2000/svg">
<g id="#ffffffff">
<path fill="#ffffff" opacity="1.00" d=" M 0.00 0.00 L 50.00 0.00 L 50.00 50.00 L 0.00 50.00 L 0.00 0.00 M 23.60 13.61 C 21.61 15.29 22.20 18.23 21.81 20.54 C 21.14 20.54 19.79 20.55 19.12 20.55 C 19.11 21.85 19.09 23.15 19.07 24.44 C 19.78 24.47 21.19 24.51 21.90 24.53 C 21.91 28.32 21.83 32.10 21.98 35.88 C 23.46 35.83 24.94 35.83 26.43 35.88 C 26.38 32.10 26.37 28.31 26.34 24.52 C 27.13 24.51 28.73 24.50 29.52 24.49 C 29.64 23.19 29.79 21.89 29.96 20.59 C 28.75 20.58 27.54 20.56 26.34 20.55 C 26.35 19.48 26.37 18.42 26.38 17.35 C 27.60 17.11 28.82 16.87 30.03 16.62 C 29.93 15.44 29.84 14.25 29.77 13.07 C 27.72 13.20 25.54 12.79 23.60 13.61 Z" />
</g>
<g id="#909090ff">
<path fill="#909090" opacity="1.00" d=" M 23.60 13.61 C 25.54 12.79 27.72 13.20 29.77 13.07 C 29.84 14.25 29.93 15.44 30.03 16.62 C 28.82 16.87 27.60 17.11 26.38 17.35 C 26.37 18.42 26.35 19.48 26.34 20.55 C 27.54 20.56 28.75 20.58 29.96 20.59 C 29.79 21.89 29.64 23.19 29.52 24.49 C 28.73 24.50 27.13 24.51 26.34 24.52 C 26.37 28.31 26.38 32.10 26.43 35.88 C 24.94 35.83 23.46 35.83 21.98 35.88 C 21.83 32.10 21.91 28.32 21.90 24.53 C 21.19 24.51 19.78 24.47 19.07 24.44 C 19.09 23.15 19.11 21.85 19.12 20.55 C 19.79 20.55 21.14 20.54 21.81 20.54 C 22.20 18.23 21.61 15.29 23.60 13.61 Z" />
</g>
</svg>
