<?xml version="1.0" encoding="UTF-8" ?>
<!DOCTYPE svg PUBLIC "-//W3C//DTD SVG 1.1//EN" "http://www.w3.org/Graphics/SVG/1.1/DTD/svg11.dtd">
<svg id="marshall-logo" width="500pt" height="200pt" viewBox="0 100 500 130" version="1.1"
     xmlns="http://www.w3.org/2000/svg">
    <g id="#ffffffff">
        <!--<path fill="#ffffff" opacity="1.00" d=" M 0.00 0.00 L 400.00 0.00 L 400.00 400.00 L 0.00 400.00 L 0.00 0.00 M 36.00 36.00 C 36.00 145.33 36.00 254.67 36.00 364.00 C 145.33 364.00 254.67 364.00 364.00 364.00 C 364.00 254.67 364.00 145.33 364.00 36.00 C 254.67 36.00 145.33 36.00 36.00 36.00 Z" />-->
        <path opacity="1.00" d=" M 108.12 154.05 C 110.67 151.34 115.84 155.27 113.69 158.52 C 107.67 170.80 103.40 184.20 103.18 197.97 C 113.81 182.60 124.26 166.71 138.59 154.49 C 140.52 152.31 145.31 154.52 143.37 157.44 C 135.16 170.75 126.57 183.95 120.45 198.41 C 117.59 205.81 114.53 213.92 116.36 221.94 C 116.80 225.03 120.48 224.57 122.59 223.58 C 126.15 221.66 129.79 219.11 131.23 215.15 C 135.08 206.12 143.24 198.58 153.09 196.91 C 155.87 196.36 158.50 197.66 160.85 198.98 C 163.05 196.76 166.23 196.49 168.84 198.15 C 168.67 199.46 168.70 200.84 167.99 202.01 C 164.67 208.65 160.67 214.96 157.69 221.77 C 161.01 221.40 163.33 218.78 165.45 216.46 C 169.99 211.22 173.79 205.40 177.65 199.66 C 175.09 194.81 173.77 188.62 176.64 183.62 C 178.93 179.67 185.60 178.46 188.19 182.74 C 191.21 187.48 188.74 193.15 185.94 197.34 C 188.38 197.19 191.13 196.06 193.39 197.53 C 194.86 198.81 194.93 201.13 193.74 202.62 C 189.18 209.68 181.42 215.36 180.78 224.38 C 185.62 224.41 189.88 221.36 193.19 218.10 C 199.86 210.11 206.35 201.97 212.98 193.95 C 214.84 190.76 221.35 192.12 220.98 196.02 C 219.35 198.99 216.81 201.31 215.03 204.18 C 215.95 208.41 218.22 212.43 217.82 216.96 C 221.00 214.07 225.84 212.67 227.55 208.44 C 232.54 197.75 237.37 186.98 242.20 176.21 C 242.84 174.88 243.36 173.46 244.34 172.33 C 246.79 170.64 252.70 172.17 250.96 175.99 C 247.58 184.05 243.97 192.01 240.72 200.13 C 243.41 198.65 245.86 196.26 249.03 195.98 C 253.05 196.71 254.46 201.57 253.93 205.10 C 252.73 211.95 247.90 217.31 245.07 223.48 C 248.73 221.61 252.53 219.09 254.08 215.11 C 257.56 207.69 263.58 201.31 271.08 197.90 C 275.12 196.01 280.28 195.76 283.67 199.05 C 285.18 196.32 288.95 196.04 291.43 197.52 C 292.91 198.43 291.69 200.18 291.23 201.31 C 288.10 207.70 284.70 213.96 281.57 220.35 C 282.03 221.48 282.50 222.60 282.98 223.73 C 286.49 221.09 290.27 218.41 292.58 214.59 C 296.46 204.85 301.98 195.77 308.70 187.72 C 313.72 181.93 319.33 176.39 326.24 172.90 C 329.42 170.96 334.75 173.79 333.07 177.80 C 330.06 186.11 325.68 194.10 319.31 200.33 C 315.05 204.49 310.31 208.17 305.26 211.32 C 303.51 212.52 301.55 213.56 300.25 215.27 C 299.42 217.91 298.36 221.31 300.44 223.65 C 302.35 225.32 304.84 223.91 306.54 222.66 C 313.61 217.36 317.33 209.08 321.56 201.59 C 326.52 192.61 333.03 184.44 341.10 178.07 C 344.42 175.30 348.19 171.63 352.94 172.89 C 356.40 174.65 354.23 178.85 353.36 181.57 C 348.54 195.67 336.68 205.62 324.81 213.81 C 322.14 215.14 322.32 218.49 322.57 221.02 C 322.78 223.09 324.85 224.98 326.98 224.10 C 333.42 222.18 336.54 215.67 341.00 211.25 C 343.17 210.53 344.20 213.52 342.96 215.02 C 340.16 220.80 335.81 225.87 330.47 229.45 C 327.01 231.80 322.23 232.66 318.45 230.55 C 315.93 229.13 315.03 226.21 313.94 223.73 C 309.76 228.14 304.16 232.18 297.83 231.98 C 293.84 231.83 291.61 227.92 291.22 224.36 C 287.60 227.28 284.00 231.31 279.07 231.54 C 276.36 231.89 274.86 229.36 273.45 227.53 C 269.45 229.77 265.05 232.28 260.27 231.42 C 257.22 230.98 255.27 228.45 253.44 226.25 C 250.72 228.14 248.15 230.48 244.92 231.47 C 239.94 233.02 234.70 227.33 236.51 222.46 C 238.85 216.89 242.09 211.76 244.70 206.32 C 244.72 206.05 244.75 205.49 244.77 205.21 C 242.79 205.27 241.47 206.99 239.96 208.04 C 238.09 209.73 235.70 211.08 234.66 213.48 C 232.20 218.81 229.82 224.18 227.27 229.46 C 225.78 233.08 218.22 232.52 218.71 228.02 C 218.73 226.03 220.07 224.42 220.93 222.72 C 215.71 226.27 210.84 231.22 204.21 231.73 C 199.72 232.30 195.38 229.84 193.17 225.98 C 188.81 228.41 184.48 232.05 179.18 231.58 C 175.06 231.29 171.69 227.30 172.56 223.14 C 173.85 215.28 179.66 209.25 185.01 203.75 C 184.50 203.64 183.48 203.40 182.97 203.29 C 177.51 210.38 172.81 218.11 166.58 224.59 C 163.46 227.85 159.50 230.62 155.01 231.50 C 152.42 232.02 150.51 229.99 148.95 228.27 C 144.89 230.70 139.82 232.69 135.15 230.82 C 132.92 230.10 131.55 228.11 130.25 226.30 C 126.11 229.89 120.74 232.73 115.09 231.52 C 111.50 231.35 108.70 228.37 108.06 224.96 C 106.92 219.09 108.10 213.12 108.79 207.27 C 103.86 215.77 99.24 224.64 92.31 231.73 C 90.58 231.69 88.89 231.35 87.53 230.23 C 89.31 219.73 93.81 209.73 94.02 198.98 C 89.90 207.53 86.02 216.44 79.56 223.54 C 75.34 228.17 69.41 231.69 62.98 231.50 C 58.71 231.26 54.07 230.25 51.06 226.97 C 46.03 221.86 45.80 212.23 51.60 207.61 C 55.71 204.53 61.47 205.16 65.89 207.22 C 67.19 207.88 66.78 209.45 66.65 210.61 C 65.05 213.46 61.40 209.97 59.12 211.72 C 54.70 214.10 54.93 221.43 59.35 223.69 C 62.88 225.37 67.09 224.36 70.25 222.32 C 73.81 220.14 75.72 216.26 77.87 212.84 C 88.96 193.77 95.29 172.15 108.12 154.05 M 306.31 203.42 C 314.74 197.92 321.13 189.83 325.18 180.65 C 317.46 186.92 311.22 194.81 306.31 203.42 M 346.87 181.06 C 339.34 186.88 333.53 194.64 329.14 203.03 C 336.76 197.33 343.36 190.00 346.87 181.06 M 181.87 193.34 C 183.51 190.87 184.61 187.69 182.33 185.19 C 180.52 187.58 180.39 190.74 181.87 193.34 M 151.52 202.62 C 144.66 206.37 139.09 213.07 138.08 220.99 C 137.87 222.43 139.16 224.48 140.85 223.96 C 149.81 221.86 155.06 212.65 156.25 204.09 C 155.73 202.08 153.12 201.47 151.52 202.62 M 263.52 213.49 C 261.78 216.33 260.41 219.98 261.72 223.26 C 262.81 224.81 264.92 224.13 266.34 223.49 C 273.94 219.78 278.63 211.46 278.98 203.15 C 277.80 202.68 276.59 201.86 275.27 202.33 C 269.95 204.15 266.39 208.90 263.52 213.49 M 200.05 220.31 C 199.65 223.58 203.93 227.62 206.86 224.77 C 210.07 221.06 208.74 215.52 207.45 211.25 C 204.87 214.17 202.19 217.04 200.05 220.31 Z"/>
    </g>
    <g id="#1d1d1bff">
        <!--<path fill="#1d1d1b" opacity="1.00" d=" M 36.00 36.00 C 145.33 36.00 254.67 36.00 364.00 36.00 C 364.00 145.33 364.00 254.67 364.00 364.00 C 254.67 364.00 145.33 364.00 36.00 364.00 C 36.00 254.67 36.00 145.33 36.00 36.00 M 108.12 154.05 C 95.29 172.15 88.96 193.77 77.87 212.84 C 75.72 216.26 73.81 220.14 70.25 222.32 C 67.09 224.36 62.88 225.37 59.35 223.69 C 54.93 221.43 54.70 214.10 59.12 211.72 C 61.40 209.97 65.05 213.46 66.65 210.61 C 66.78 209.45 67.19 207.88 65.89 207.22 C 61.47 205.16 55.71 204.53 51.60 207.61 C 45.80 212.23 46.03 221.86 51.06 226.97 C 54.07 230.25 58.71 231.26 62.98 231.50 C 69.41 231.69 75.34 228.17 79.56 223.54 C 86.02 216.44 89.90 207.53 94.02 198.98 C 93.81 209.73 89.31 219.73 87.53 230.23 C 88.89 231.35 90.58 231.69 92.31 231.73 C 99.24 224.64 103.86 215.77 108.79 207.27 C 108.10 213.12 106.92 219.09 108.06 224.96 C 108.70 228.37 111.50 231.35 115.09 231.52 C 120.74 232.73 126.11 229.89 130.25 226.30 C 131.55 228.11 132.92 230.10 135.15 230.82 C 139.82 232.69 144.89 230.70 148.95 228.27 C 150.51 229.99 152.42 232.02 155.01 231.50 C 159.50 230.62 163.46 227.85 166.58 224.59 C 172.81 218.11 177.51 210.38 182.97 203.29 C 183.48 203.40 184.50 203.64 185.01 203.75 C 179.66 209.25 173.85 215.28 172.56 223.14 C 171.69 227.30 175.06 231.29 179.18 231.58 C 184.48 232.05 188.81 228.41 193.17 225.98 C 195.38 229.84 199.72 232.30 204.21 231.73 C 210.84 231.22 215.71 226.27 220.93 222.72 C 220.07 224.42 218.73 226.03 218.71 228.02 C 218.22 232.52 225.78 233.08 227.27 229.46 C 229.82 224.18 232.20 218.81 234.66 213.48 C 235.70 211.08 238.09 209.73 239.96 208.04 C 241.47 206.99 242.79 205.27 244.77 205.21 C 244.75 205.49 244.72 206.05 244.70 206.32 C 242.09 211.76 238.85 216.89 236.51 222.46 C 234.70 227.33 239.94 233.02 244.92 231.47 C 248.15 230.48 250.72 228.14 253.44 226.25 C 255.27 228.45 257.22 230.98 260.27 231.42 C 265.05 232.28 269.45 229.77 273.45 227.53 C 274.86 229.36 276.36 231.89 279.07 231.54 C 284.00 231.31 287.60 227.28 291.22 224.36 C 291.61 227.92 293.84 231.83 297.83 231.98 C 304.16 232.18 309.76 228.14 313.94 223.73 C 315.03 226.21 315.93 229.13 318.45 230.55 C 322.23 232.66 327.01 231.80 330.47 229.45 C 335.81 225.87 340.16 220.80 342.96 215.02 C 344.20 213.52 343.17 210.53 341.00 211.25 C 336.54 215.67 333.42 222.18 326.98 224.10 C 324.85 224.98 322.78 223.09 322.57 221.02 C 322.32 218.49 322.14 215.14 324.81 213.81 C 336.68 205.62 348.54 195.67 353.36 181.57 C 354.23 178.85 356.40 174.65 352.94 172.89 C 348.19 171.63 344.42 175.30 341.10 178.07 C 333.03 184.44 326.52 192.61 321.56 201.59 C 317.33 209.08 313.61 217.36 306.54 222.66 C 304.84 223.91 302.35 225.32 300.44 223.65 C 298.36 221.31 299.42 217.91 300.25 215.27 C 301.55 213.56 303.51 212.52 305.26 211.32 C 310.31 208.17 315.05 204.49 319.31 200.33 C 325.68 194.10 330.06 186.11 333.07 177.80 C 334.75 173.79 329.42 170.96 326.24 172.90 C 319.33 176.39 313.72 181.93 308.70 187.72 C 301.98 195.77 296.46 204.85 292.58 214.59 C 290.27 218.41 286.49 221.09 282.98 223.73 C 282.50 222.60 282.03 221.48 281.57 220.35 C 284.70 213.96 288.10 207.70 291.23 201.31 C 291.69 200.18 292.91 198.43 291.43 197.52 C 288.95 196.04 285.18 196.32 283.67 199.05 C 280.28 195.76 275.12 196.01 271.08 197.90 C 263.58 201.31 257.56 207.69 254.08 215.11 C 252.53 219.09 248.73 221.61 245.07 223.48 C 247.90 217.31 252.73 211.95 253.93 205.10 C 254.46 201.57 253.05 196.71 249.03 195.98 C 245.86 196.26 243.41 198.65 240.72 200.13 C 243.97 192.01 247.58 184.05 250.96 175.99 C 252.70 172.17 246.79 170.64 244.34 172.33 C 243.36 173.46 242.84 174.88 242.20 176.21 C 237.37 186.98 232.54 197.75 227.55 208.44 C 225.84 212.67 221.00 214.07 217.82 216.96 C 218.22 212.43 215.95 208.41 215.03 204.18 C 216.81 201.31 219.35 198.99 220.98 196.02 C 221.35 192.12 214.84 190.76 212.98 193.95 C 206.35 201.97 199.86 210.11 193.19 218.10 C 189.88 221.36 185.62 224.41 180.78 224.38 C 181.42 215.36 189.18 209.68 193.74 202.62 C 194.93 201.13 194.86 198.81 193.39 197.53 C 191.13 196.06 188.38 197.19 185.94 197.34 C 188.74 193.15 191.21 187.48 188.19 182.74 C 185.60 178.46 178.93 179.67 176.64 183.62 C 173.77 188.62 175.09 194.81 177.65 199.66 C 173.79 205.40 169.99 211.22 165.45 216.46 C 163.33 218.78 161.01 221.40 157.69 221.77 C 160.67 214.96 164.67 208.65 167.99 202.01 C 168.70 200.84 168.67 199.46 168.84 198.15 C 166.23 196.49 163.05 196.76 160.85 198.98 C 158.50 197.66 155.87 196.36 153.09 196.91 C 143.24 198.58 135.08 206.12 131.23 215.15 C 129.79 219.11 126.15 221.66 122.59 223.58 C 120.48 224.57 116.80 225.03 116.36 221.94 C 114.53 213.92 117.59 205.81 120.45 198.41 C 126.57 183.95 135.16 170.75 143.37 157.44 C 145.31 154.52 140.52 152.31 138.59 154.49 C 124.26 166.71 113.81 182.60 103.18 197.97 C 103.40 184.20 107.67 170.80 113.69 158.52 C 115.84 155.27 110.67 151.34 108.12 154.05 Z" />-->
        <!--<path fill="#1d1d1b" opacity="1.00" d=" M 306.31 203.42 C 311.22 194.81 317.46 186.92 325.18 180.65 C 321.13 189.83 314.74 197.92 306.31 203.42 Z" />-->
        <!--<path fill="#1d1d1b" opacity="1.00" d=" M 346.87 181.06 C 343.36 190.00 336.76 197.33 329.14 203.03 C 333.53 194.64 339.34 186.88 346.87 181.06 Z" />-->
        <!--<path fill="#1d1d1b" opacity="1.00" d=" M 181.87 193.34 C 180.39 190.74 180.52 187.58 182.33 185.19 C 184.61 187.69 183.51 190.87 181.87 193.34 Z" />-->
        <!--<path fill="#1d1d1b" opacity="1.00" d=" M 151.52 202.62 C 153.12 201.47 155.73 202.08 156.25 204.09 C 155.06 212.65 149.81 221.86 140.85 223.96 C 139.16 224.48 137.87 222.43 138.08 220.99 C 139.09 213.07 144.66 206.37 151.52 202.62 Z" />-->
        <!--<path fill="#1d1d1b" opacity="1.00" d=" M 263.52 213.49 C 266.39 208.90 269.95 204.15 275.27 202.33 C 276.59 201.86 277.80 202.68 278.98 203.15 C 278.63 211.46 273.94 219.78 266.34 223.49 C 264.92 224.13 262.81 224.81 261.72 223.26 C 260.41 219.98 261.78 216.33 263.52 213.49 Z" />-->
        <!--<path fill="#1d1d1b" opacity="1.00" d=" M 200.05 220.31 C 202.19 217.04 204.87 214.17 207.45 211.25 C 208.74 215.52 210.07 221.06 206.86 224.77 C 203.93 227.62 199.65 223.58 200.05 220.31 Z" />-->
    </g>
</svg>
