<?xml version="1.0" encoding="UTF-8" ?>
<!DOCTYPE svg PUBLIC "-//W3C//DTD SVG 1.1//EN" "http://www.w3.org/Graphics/SVG/1.1/DTD/svg11.dtd">
<svg id="twitter-logo" width="400pt" height="400pt" viewBox="0 0 400 400" version="1.1" xmlns="http://www.w3.org/2000/svg">
    <g id="#2aa9e0ff">
        <path opacity="1.00"
              d=" M 238.58 66.58 C 251.92 60.93 267.03 59.78 281.15 62.88 C 294.76 65.89 307.33 73.14 316.89 83.27 C 332.58 80.17 347.64 74.24 361.45 66.20 C 356.46 82.21 345.48 96.22 331.16 104.95 C 344.91 103.27 358.32 99.39 371.01 93.91 C 361.63 108.11 349.60 120.51 335.87 130.55 C 338.80 198.27 305.48 266.85 249.40 305.23 C 219.69 325.76 183.98 336.94 148.00 338.52 C 106.28 340.94 63.93 329.86 28.85 307.12 C 65.49 311.54 103.71 301.19 132.69 278.25 C 114.47 278.17 96.56 270.16 83.94 257.09 C 76.32 249.37 70.77 239.75 67.33 229.49 C 77.73 231.48 88.44 230.98 98.71 228.52 C 81.77 224.91 66.27 214.96 56.19 200.85 C 47.37 188.72 42.61 173.66 42.98 158.66 C 52.55 164.01 63.37 166.93 74.29 167.56 C 60.88 158.30 50.56 144.47 46.18 128.70 C 40.94 110.50 43.39 90.19 53.09 73.89 C 72.49 97.57 97.25 116.92 125.16 129.57 C 147.79 139.89 172.38 145.94 197.23 147.12 C 193.65 131.37 195.56 114.38 202.88 99.95 C 210.23 85.00 223.19 72.94 238.58 66.58 Z"/>
    </g>
</svg>
