<?xml version="1.0" encoding="UTF-8" ?>
<!DOCTYPE svg PUBLIC "-//W3C//DTD SVG 1.1//EN" "http://www.w3.org/Graphics/SVG/1.1/DTD/svg11.dtd">
<svg width="50pt" height="50pt" viewBox="0 0 50 50" version="1.1" xmlns="http://www.w3.org/2000/svg">
<g id="#ffffffff">
<path fill="#ffffff" opacity="1.00" d=" M 0.00 0.00 L 50.00 0.00 L 50.00 50.00 L 0.00 50.00 L 0.00 0.00 M 13.69 19.02 C 16.07 24.21 19.16 31.09 25.97 30.69 C 26.20 29.84 26.65 28.15 26.88 27.31 C 29.04 30.01 32.13 31.26 35.56 30.38 C 34.32 28.56 32.93 26.84 31.42 25.23 C 32.87 23.29 34.25 21.29 35.44 19.18 C 33.76 19.15 32.08 19.13 30.40 19.11 C 29.36 21.23 28.22 23.38 26.27 24.81 C 26.25 22.72 26.30 20.64 26.32 18.56 C 24.63 18.52 22.95 18.46 21.26 18.38 C 21.96 20.50 22.50 22.69 22.02 24.93 C 20.38 23.21 19.24 21.11 17.83 19.22 C 16.45 19.09 15.07 19.02 13.69 19.02 Z" />
</g>
<g id="#919191ff">
<path fill="#919191" opacity="1.00" d=" M 13.69 19.02 C 15.07 19.02 16.45 19.09 17.83 19.22 C 19.24 21.11 20.38 23.21 22.02 24.93 C 22.50 22.69 21.96 20.50 21.26 18.38 C 22.95 18.46 24.63 18.52 26.32 18.56 C 26.30 20.64 26.25 22.72 26.27 24.81 C 28.22 23.38 29.36 21.23 30.40 19.11 C 32.08 19.13 33.76 19.15 35.44 19.18 C 34.25 21.29 32.87 23.29 31.42 25.23 C 32.93 26.84 34.32 28.56 35.56 30.38 C 32.13 31.26 29.04 30.01 26.88 27.31 C 26.65 28.15 26.20 29.84 25.97 30.69 C 19.16 31.09 16.07 24.21 13.69 19.02 Z" />
</g>
</svg>
