<?xml version="1.0" encoding="UTF-8" ?>
<!DOCTYPE svg PUBLIC "-//W3C//DTD SVG 1.1//EN" "http://www.w3.org/Graphics/SVG/1.1/DTD/svg11.dtd">
<svg width="50pt" height="41pt" viewBox="0 0 50 41" version="1.1" xmlns="http://www.w3.org/2000/svg">
<g id="#fefefeff">
<path fill="#fefefe" opacity="1.00" d=" M 0.00 0.00 L 34.17 0.00 C 27.85 0.28 23.36 6.78 24.60 12.83 C 16.35 12.42 8.71 8.15 3.44 1.89 C 0.80 6.76 2.50 12.70 6.56 16.22 C 4.96 15.66 3.37 15.09 1.77 14.52 C 2.09 19.54 5.54 23.62 10.21 25.24 C 8.64 25.28 7.07 25.30 5.51 25.32 C 7.11 29.45 10.95 32.06 15.23 32.71 C 10.79 35.70 5.38 37.53 0.00 36.40 L 0.00 0.00 Z" />
<path fill="#fefefe" opacity="1.00" d=" M 34.82 0.00 L 50.00 0.00 L 50.00 5.20 C 49.43 5.34 48.29 5.61 47.71 5.74 C 47.36 5.89 46.64 6.19 46.29 6.34 C 45.89 6.41 45.10 6.55 44.70 6.62 C 46.33 4.80 47.94 2.93 48.99 0.70 C 46.91 1.60 44.86 2.55 42.78 3.43 C 40.50 1.59 37.83 0.04 34.82 0.00 Z" />
<path fill="#fefefe" opacity="1.00" d=" M 44.96 13.03 C 44.50 9.59 48.04 7.95 49.99 5.79 L 50.00 6.90 L 50.00 41.00 L 21.51 41.00 C 26.02 40.30 29.95 37.95 33.82 35.68 L 33.55 34.82 L 34.81 34.95 L 34.79 33.87 L 35.91 33.94 L 36.05 33.16 C 38.05 31.68 39.19 29.46 40.68 27.54 C 43.07 23.06 44.84 18.15 44.96 13.03 Z" />
<path fill="#fefefe" opacity="1.00" d=" M 0.00 37.56 C 3.59 38.22 6.72 40.56 10.40 41.00 L 0.00 41.00 L 0.00 37.56 Z" />
</g>
<g id="#000000ff">
<path fill="#000000" opacity="1.00" d=" M 34.17 0.00 L 34.82 0.00 C 37.83 0.04 40.50 1.59 42.78 3.43 C 44.86 2.55 46.91 1.60 48.99 0.70 C 47.94 2.93 46.33 4.80 44.70 6.62 C 45.10 6.55 45.89 6.41 46.29 6.34 C 46.64 6.19 47.36 5.89 47.71 5.74 C 48.29 5.61 49.43 5.34 50.00 5.20 L 50.00 6.90 L 49.99 5.79 C 48.04 7.95 44.50 9.59 44.96 13.03 C 44.84 18.15 43.07 23.06 40.68 27.54 C 39.19 29.46 38.05 31.68 36.05 33.16 L 35.91 33.94 L 34.79 33.87 L 34.81 34.95 L 33.55 34.82 L 33.82 35.68 C 29.95 37.95 26.02 40.30 21.51 41.00 L 10.40 41.00 C 6.72 40.56 3.59 38.22 0.00 37.56 L 0.00 36.40 C 5.38 37.53 10.79 35.70 15.23 32.71 C 10.95 32.06 7.11 29.45 5.51 25.32 C 7.07 25.30 8.64 25.28 10.21 25.24 C 5.54 23.62 2.09 19.54 1.77 14.52 C 3.37 15.09 4.96 15.66 6.56 16.22 C 2.50 12.70 0.80 6.76 3.44 1.89 C 8.71 8.15 16.35 12.42 24.60 12.83 C 23.36 6.78 27.85 0.28 34.17 0.00 Z" />
</g>
</svg>
