<?xml version="1.0" encoding="UTF-8" ?>
<!DOCTYPE svg PUBLIC "-//W3C//DTD SVG 1.1//EN" "http://www.w3.org/Graphics/SVG/1.1/DTD/svg11.dtd">
<svg width="50pt" height="41pt" viewBox="0 0 50 41" version="1.1" xmlns="http://www.w3.org/2000/svg">
<g id="#fefefeff">
<path fill="#fefefe" opacity="1.00" d=" M 0.00 0.00 L 34.19 0.00 C 27.87 0.25 23.35 6.77 24.61 12.83 C 16.39 12.41 8.66 8.21 3.50 1.86 C 0.76 6.67 2.48 12.69 6.55 16.17 C 4.87 15.65 3.21 15.07 1.56 14.45 C 2.29 16.85 2.77 19.47 4.48 21.42 C 5.92 23.28 8.24 24.03 10.07 25.40 C 8.55 25.37 7.04 25.32 5.52 25.24 C 7.01 29.53 11.05 31.92 15.27 32.86 C 10.68 35.55 5.40 37.61 0.00 36.40 L 0.00 0.00 Z" />
<path fill="#fefefe" opacity="1.00" d=" M 34.86 0.00 L 50.00 0.00 L 50.00 5.18 C 48.56 5.48 47.15 5.91 45.84 6.58 L 44.84 6.38 C 46.48 4.68 48.00 2.84 49.02 0.69 C 46.94 1.61 44.88 2.55 42.77 3.41 C 40.47 1.62 37.87 0.02 34.86 0.00 Z" />
<path fill="#fefefe" opacity="1.00" d=" M 45.06 11.94 C 45.08 9.04 48.45 7.82 49.99 5.78 L 50.00 6.91 L 50.00 41.00 L 21.49 41.00 C 26.03 39.98 30.83 38.33 34.04 34.82 L 34.92 34.91 L 34.79 33.72 L 36.07 34.07 L 36.03 33.21 C 38.23 31.25 39.96 28.83 41.34 26.23 C 43.66 21.83 44.93 16.92 45.06 11.94 Z" />
<path fill="#fefefe" opacity="1.00" d=" M 0.00 37.57 C 3.56 38.22 6.74 40.54 10.42 41.00 L 0.00 41.00 L 0.00 37.57 Z" />
</g>
<g id="#000000ff">
<path fill="#000000" opacity="1.00" d=" M 34.19 0.00 L 34.86 0.00 C 37.87 0.02 40.47 1.62 42.77 3.41 C 44.88 2.55 46.94 1.61 49.02 0.69 C 48.00 2.84 46.48 4.68 44.84 6.38 L 45.84 6.58 C 47.15 5.91 48.56 5.48 50.00 5.18 L 50.00 6.91 L 49.99 5.78 C 48.45 7.82 45.08 9.04 45.06 11.94 C 44.93 16.92 43.66 21.83 41.34 26.23 C 39.96 28.83 38.23 31.25 36.03 33.21 L 36.07 34.07 L 34.79 33.72 L 34.92 34.91 L 34.04 34.82 C 30.83 38.33 26.03 39.98 21.49 41.00 L 10.42 41.00 C 6.74 40.54 3.56 38.22 0.00 37.57 L 0.00 36.40 C 5.40 37.61 10.68 35.55 15.27 32.86 C 11.05 31.92 7.01 29.53 5.52 25.24 C 7.04 25.32 8.55 25.37 10.07 25.40 C 8.24 24.03 5.92 23.28 4.48 21.42 C 2.77 19.47 2.29 16.85 1.56 14.45 C 3.21 15.07 4.87 15.65 6.55 16.17 C 2.48 12.69 0.76 6.67 3.50 1.86 C 8.66 8.21 16.39 12.41 24.61 12.83 C 23.35 6.77 27.87 0.25 34.19 0.00 Z" />
</g>
</svg>
